HIERARCHY
ROOT ROOT
{
	OFFSET 0.000000 56.020000 -5.659234
	CHANNELS 6 Xposition Yposition Zposition Xrotation Yrotation Zrotation 
	JOINT C_spine0001_bind_JNT
	{
		OFFSET 0.000000 1.618999 0.000000
		CHANNELS 3 Xrotation Yrotation Zrotation
		JOINT C_spine0002_bind_JNT
		{
			OFFSET 0.000000 4.942001 0.000001
			CHANNELS 3 Xrotation Yrotation Zrotation
			JOINT C_spine0003_bind_JNT
			{
				OFFSET 0.000000 4.942001 -0.000000
				CHANNELS 3 Xrotation Yrotation Zrotation
				JOINT C_neck0001_bind_JNT
				{
					OFFSET 0.000000 17.026009 -0.000000
					CHANNELS 3 Xrotation Yrotation Zrotation
					JOINT C_neck0002_bind_JNT
					{
						OFFSET 0.000000 3.249985 0.000000
						CHANNELS 3 Xrotation Yrotation Zrotation
						JOINT C_head_bind_JNT
						{
							OFFSET 0.000000 5.278008 0.000000
							CHANNELS 3 Xrotation Yrotation Zrotation
							End Site
							{
								OFFSET 0.000000 0.000000 0.000000
							}
						}
					}
				}
				JOINT L_clavicle_bind_JNT
				{
					OFFSET 4.590000 12.067001 0.834000
					CHANNELS 3 Xrotation Yrotation Zrotation
					JOINT L_armUpper0001_bind_JNT
					{
						OFFSET 7.812635 0.512001 -3.452945
						CHANNELS 3 Xrotation Yrotation Zrotation
						JOINT L_armLower0001_bind_JNT
						{
							OFFSET 15.265892 -6.552116 -0.058157
							CHANNELS 3 Xrotation Yrotation Zrotation
							JOINT L_hand0001_bind_JNT
							{
								OFFSET 14.747667 -6.369995 5.049225
								CHANNELS 3 Xrotation Yrotation Zrotation
								End Site
								{
									OFFSET 0.000000 0.000000 0.000000
								}
							}
						}
					}
				}
				JOINT R_clavicle_bind_JNT
				{
					OFFSET -4.590000 12.067001 0.834000
					CHANNELS 3 Xrotation Yrotation Zrotation
					JOINT R_armUpper0001_bind_JNT
					{
						OFFSET -7.812635 0.512001 -3.452945
						CHANNELS 3 Xrotation Yrotation Zrotation
						JOINT R_armLower0001_bind_JNT
						{
							OFFSET -15.265890 -6.552124 -0.058160
							CHANNELS 3 Xrotation Yrotation Zrotation
							JOINT R_hand0001_bind_JNT
							{
								OFFSET -14.746784 -6.369629 5.048937
								CHANNELS 3 Xrotation Yrotation Zrotation
								End Site
								{
									OFFSET 0.000000 0.000000 0.000000
								}
							}
						}
					}
				}
			}
		}
	}
	JOINT C_pelvis0001_bind_JNT
	{
		OFFSET -0.000000 0.000000 0.000000
		CHANNELS 3 Xrotation Yrotation Zrotation
		JOINT L_legUpper0001_bind_JNT
		{
			OFFSET 6.599999 -6.027000 0.539000
			CHANNELS 3 Xrotation Yrotation Zrotation
			JOINT L_legLower0001_bind_JNT
			{
				OFFSET -0.140713 -19.187443 0.040261
				CHANNELS 3 Xrotation Yrotation Zrotation
				JOINT L_foot0001_bind_JNT
				{
					OFFSET -0.132215 -18.028637 -1.138370
					CHANNELS 3 Xrotation Yrotation Zrotation
					JOINT L_foot0002_bind_JNT
					{
						OFFSET 0.007014 -4.693133 9.886524
						CHANNELS 3 Xrotation Yrotation Zrotation
						End Site
						{
							OFFSET 0.000000 0.000000 0.000000
						}
					}
				}
			}
		}
		JOINT R_legUpper0001_bind_JNT
		{
			OFFSET -6.599999 -6.027000 0.539000
			CHANNELS 3 Xrotation Yrotation Zrotation
			JOINT R_legLower0001_bind_JNT
			{
				OFFSET 0.140710 -19.187164 0.040550
				CHANNELS 3 Xrotation Yrotation Zrotation
				JOINT R_foot0001_bind_JNT
				{
					OFFSET 0.132215 -18.028633 -1.138362
					CHANNELS 3 Xrotation Yrotation Zrotation
					JOINT R_foot0002_bind_JNT
					{
						OFFSET -0.007014 -4.693128 9.886505
						CHANNELS 3 Xrotation Yrotation Zrotation
						End Site
						{
							OFFSET 0.000000 0.000000 0.000000
						}
					}
				}
			}
		}
	}
}
MOTION
Frames: 15
Frame Time: 0.046333
19.404050 47.095802 82.478074 -0.003948 14.928444 -0.018967 -6.312524 1.322429 5.912362 4.116054 -0.057651 -5.158539 1.506049 -0.037530 -2.713138 5.093546 -0.395865 -1.532687 -2.945826 10.920714 0.597027 -17.080384 -0.479909 0.636004 -0.603093 17.790094 -1.871327 -2.497444 -1.485342 -59.814856 13.027981 1.132367 4.379692 -15.377857 -35.289247 -29.886962 -1.129035 -14.288935 0.861780 2.765838 -0.344528 57.558075 16.205918 -5.439651 -0.099318 5.224048 36.585968 30.700509 -5.007804 1.355034 4.953968 4.361353 -0.782198 -14.705838 9.286744 4.728557 -1.091758 -9.697741 10.223977 7.917241 -0.586537 0.194848 -0.342484 -17.337859 -1.598008 -7.106472 69.998815 3.798516 -5.739193 2.602074 -13.934629 4.125626 -3.283987 -1.043911 -1.610787
19.697882 47.157536 83.225282 0.004602 14.799896 -0.016545 -6.817797 1.465138 4.967955 4.373387 -1.354673 -4.186608 1.665168 -1.129400 -2.522448 4.948757 -0.248546 -1.454248 -2.868024 11.628106 0.649998 -16.823355 -0.660559 1.193642 -1.273579 16.300955 -1.118396 -4.343113 -2.030811 -59.312796 11.692510 0.933501 3.976306 -14.591171 -35.963313 -28.111794 -0.588285 -15.120494 1.167920 3.596570 -1.822892 56.407505 16.057060 -5.742329 0.162172 5.132917 37.002145 30.776946 -5.351862 1.381031 4.431542 6.223365 -0.896271 -14.249381 8.527151 4.714750 -0.840221 -10.260882 9.837958 7.730624 -0.581248 0.141513 -0.291833 -20.098851 -1.481954 -6.432433 69.736580 4.441173 -5.493047 0.868492 -14.415741 2.520657 -3.010990 -1.000367 -1.738614
19.934762 47.226162 83.831928 -0.000910 14.597326 -0.018041 -7.363479 1.644277 3.918680 4.679013 -2.471739 -3.240233 1.804998 -2.263109 -2.199871 4.807655 -0.067717 -1.438243 -2.952780 12.248496 0.719843 -16.442919 -0.763634 1.725938 -1.783644 14.808541 -0.467232 -6.179948 -2.387942 -58.379216 10.072674 1.033284 3.447265 -13.420304 -36.577293 -26.098940 -0.026272 -15.941279 1.454765 4.491014 -3.429877 55.495224 15.534976 -6.094508 0.151926 4.503383 37.560557 31.338583 -5.871371 1.391967 3.800302 8.217236 -0.755904 -13.783016 7.139946 4.748348 -0.553629 -9.950957 9.281943 7.398610 -0.800533 0.186337 0.057710 -22.376081 -1.091918 -5.247450 68.407907 4.513565 -4.483195 -1.086600 -14.655930 0.964241 -4.027228 -0.662880 -1.994962
20.149828 47.385198 84.490889 0.013441 14.429520 -0.016218 -7.569070 1.896563 2.935369 4.794672 -3.697794 -2.280165 1.807719 -3.325656 -1.980450 4.726715 -0.004903 -1.264793 -2.864121 12.753700 0.834299 -16.424287 -0.846702 2.260774 -2.200729 13.249822 0.278893 -7.776573 -2.859587 -57.190864 7.768219 1.230993 2.737612 -11.865883 -36.688332 -24.337629 0.484924 -16.823643 1.635954 5.227915 -5.079498 54.487880 15.060369 -6.350397 0.341346 3.344024 37.565892 32.772110 -5.900994 1.615865 2.916276 10.142928 -0.803189 -12.639581 5.413936 4.622476 -0.407168 -9.808353 9.027192 7.203702 -0.956554 0.106414 0.143556 -24.794769 -0.724737 -3.965460 65.374822 4.475969 -3.465452 -2.258953 -14.449950 0.082300 -4.666291 -0.676841 -2.127339
20.395235 47.533958 85.151012 0.019994 14.298588 -0.014557 -7.705820 2.023091 2.003274 4.885244 -4.767665 -1.365506 1.806835 -4.360467 -1.733370 4.760268 0.123681 -1.094899 -2.875614 13.198639 0.896985 -16.276911 -0.972682 2.579905 -2.520642 11.905875 0.933686 -9.007229 -3.225113 -55.943996 5.445484 1.223786 2.096498 -10.570533 -36.687734 -22.934004 1.041559 -17.578292 1.800564 5.835745 -6.707504 53.588660 14.423925 -6.618915 0.391074 2.236650 37.373648 34.376634 -5.940450 1.732203 2.232908 11.961523 -0.956106 -11.910432 3.689488 4.711003 -0.205122 -9.502006 8.596750 6.924031 -1.191864 0.076797 0.281869 -26.676141 -0.233199 -2.993152 61.112999 4.162038 -2.266569 -2.791017 -13.746382 -0.074485 -4.795121 -0.556410 -2.511637
20.675704 47.657342 85.814305 0.018067 14.177031 -0.012545 -7.778640 2.048324 1.117809 4.965178 -5.703453 -0.488607 1.825419 -5.351431 -1.446840 4.868634 0.311030 -0.950950 -2.981638 13.632835 0.893048 -16.047943 -1.128679 2.717947 -2.770375 10.797733 1.497383 -9.875979 -3.466988 -54.671995 3.180000 1.024983 1.539269 -9.634487 -36.617616 -21.896794 1.615237 -18.205387 1.948608 6.310762 -8.263243 52.783085 13.657469 -6.844485 0.319057 1.295455 36.975877 35.976458 -6.008066 1.752108 1.769917 13.648508 -1.188001 -11.624232 2.063619 4.976292 0.036728 -9.071245 8.041323 6.595143 -1.516610 0.109367 0.461774 -27.941600 0.323386 -2.347764 55.558450 3.547317 -0.994504 -2.756274 -12.645682 0.447759 -4.345188 -0.241038 -3.000076
20.982447 47.737804 86.533603 0.024450 13.891625 -0.004232 -7.601430 2.274054 0.265088 4.995147 -6.841710 0.442040 1.904823 -6.160551 -1.146641 4.766047 0.373518 -0.848963 -2.939479 14.322683 0.800229 -16.410958 -1.186797 3.049784 -3.117301 9.853683 2.110900 -10.481228 -3.639403 -53.428508 0.927201 0.941599 0.972903 -9.207733 -36.430514 -21.223375 1.953958 -18.845149 2.009284 6.597895 -9.474690 51.827987 13.115027 -6.590747 0.494789 0.791848 36.030038 37.019578 -5.829394 1.989411 1.311330 15.071567 -1.401722 -11.137315 0.884407 4.902408 0.069134 -9.012799 8.043054 6.609885 -1.889041 0.145864 0.370574 -28.586879 0.462895 -1.841902 47.846981 2.587697 -0.455858 -2.463473 -11.789257 1.368315 -2.950667 0.281860 -2.380196
21.302191 47.727512 87.303916 0.024350 13.702503 -0.010193 -7.305177 2.111743 -0.421099 5.018733 -7.527734 1.282252 1.910115 -6.710690 -0.889552 4.867911 0.356180 -0.779053 -3.135628 14.888713 0.882235 -16.885988 -1.275553 2.932959 -3.478978 8.860131 2.694106 -10.909456 -3.553934 -52.247202 -1.088358 0.675714 0.324782 -8.514917 -35.739069 -20.571640 2.138516 -19.198019 2.002882 7.123988 -10.922611 51.185714 12.307025 -6.518186 0.451093 0.671238 35.258537 37.985864 -5.472667 1.739231 1.108630 16.208748 -1.541647 -11.112260 -0.049626 5.054325 0.154882 -9.278500 7.932940 6.552578 -2.131948 0.056525 0.347269 -28.012274 0.910976 -1.455468 38.574346 1.338446 0.072852 -1.244196 -10.291281 2.583210 -1.538122 0.365824 -1.487997
21.613133 47.668333 88.095274 0.023357 13.613508 -0.015705 -6.939199 1.751249 -0.950479 5.021450 -8.096128 2.032681 1.911687 -7.151381 -0.711255 5.031558 0.355679 -0.646858 -3.362968 15.320676 0.881353 -17.361618 -1.277954 2.808873 -3.856698 7.911029 3.259686 -11.268101 -3.285407 -51.038429 -2.802678 0.374877 -0.433114 -7.890495 -34.974128 -20.030005 2.288924 -19.389047 2.082161 7.541532 -12.336236 50.645022 11.559531 -6.579157 0.203247 0.689529 34.597999 38.783099 -5.058576 1.315570 0.889694 17.071324 -1.661513 -11.091925 -0.556835 5.255047 0.222546 -9.744032 7.762520 6.496958 -2.350805 0.067067 0.358069 -26.738342 1.209217 -1.014620 28.419635 -0.081448 0.481143 0.513397 -8.570575 3.915933 -0.588071 0.355844 -0.665093
21.897653 47.579412 88.890855 0.025287 13.649751 -0.010092 -6.523342 1.284644 -1.295033 4.988240 -8.760871 2.673759 1.959247 -7.565558 -0.654953 5.168342 0.445177 -0.370724 -3.479759 15.581289 0.594053 -17.757990 -1.090729 2.992816 -4.254971 7.083757 3.812814 -11.618768 -2.846685 -49.731692 -4.102570 0.137224 -1.345408 -7.589858 -34.428623 -19.686527 2.483722 -19.471890 2.375922 7.576795 -13.513507 50.076917 11.120161 -6.769258 -0.283345 0.702471 34.027691 39.307337 -4.660967 0.905153 0.455522 17.606094 -1.795425 -10.749153 -0.411530 5.388390 0.216809 -10.364742 7.555340 6.496345 -2.615973 0.361843 0.386327 -24.982732 0.995046 -0.382401 17.673530 -1.624640 0.662809 2.650772 -6.878126 5.266052 -0.548747 0.478642 -0.172216
22.141666 47.474666 89.713796 0.033239 13.785523 -0.025001 -6.433349 0.743209 -1.177245 5.116605 -9.015837 2.870316 1.937796 -7.811379 -0.547307 5.431762 0.546493 -0.118928 -3.604264 15.577418 0.363124 -18.255753 -1.161652 2.696894 -4.299947 6.203027 4.033863 -11.939484 -2.305104 -48.746515 -5.151187 -0.405242 -1.996653 -6.865939 -33.810778 -19.115275 2.772839 -19.355590 2.497602 7.906562 -14.781821 49.655239 10.406689 -6.724728 -0.620205 1.006292 33.784364 39.603154 -4.401368 0.362180 0.355646 18.489452 -2.070943 -10.569738 -0.564253 5.577172 0.138370 -10.844023 7.564739 6.141227 -2.996396 0.171878 0.479861 -23.644320 0.845717 0.079585 9.710902 -2.984224 0.470950 4.519916 -5.416564 7.180120 -0.899851 0.636915 0.040925
22.380949 47.337020 90.518163 0.029362 13.800227 -0.021124 -6.292411 0.487798 -1.090568 5.112451 -9.252146 3.125600 1.963739 -8.058469 -0.532260 5.527941 0.659729 0.141222 -3.646981 15.544429 0.220386 -18.516648 -1.022616 2.428038 -4.346417 5.635702 4.113395 -12.152255 -1.979969 -47.747747 -5.833133 -0.844622 -2.580626 -6.419719 -33.539553 -18.737221 3.164661 -19.414064 2.743525 8.102114 -15.587425 49.231597 9.805005 -6.664993 -0.981890 1.123129 33.510858 39.839865 -4.265187 0.099098 0.369896 19.401625 -2.340474 -10.540825 -0.748960 5.541905 0.056432 -11.117373 7.529724 5.903633 -3.389218 -0.005570 0.600852 -22.442938 0.721286 0.621906 3.592330 -3.905145 0.112056 6.007115 -4.283813 8.463434 -0.974060 0.698716 0.148944
22.621208 47.172771 91.341512 0.020865 13.682653 -0.007012 -6.130379 0.524073 -1.026413 5.029489 -9.475889 3.412220 2.012377 -8.298123 -0.560720 5.514520 0.769459 0.411733 -3.623343 15.476837 0.127679 -18.581265 -0.740310 2.171978 -4.394304 5.345305 4.071265 -12.284210 -1.822522 -46.844409 -6.114868 -1.228850 -3.092377 -6.211786 -33.548598 -18.464498 3.576138 -19.592163 3.072702 8.215540 -16.034884 48.819122 9.283342 -6.644324 -1.311677 1.031527 33.219610 40.012788 -4.215466 0.129721 0.425899 20.467445 -2.584905 -10.551433 -1.066487 5.291014 0.005747 -11.213293 7.467932 5.707539 -3.811656 -0.130625 0.722020 -21.449219 0.575357 1.300351 -0.689947 -4.356364 -0.317572 7.123888 -3.448030 9.011799 -0.797260 0.706782 0.147782
22.876199 47.001645 92.334305 0.036397 13.403774 -0.019147 -6.126586 0.872117 -0.859531 5.102739 -9.627111 3.536797 1.976077 -8.462626 -0.436010 5.633117 0.818728 0.695855 -3.591046 15.298610 -0.047693 -18.616713 -0.616066 1.777675 -4.372048 5.193919 3.910965 -12.429647 -1.632715 -46.524057 -5.798504 -1.800796 -3.456880 -6.016499 -33.581734 -17.918915 3.708641 -19.643661 3.296991 8.502315 -16.527156 48.498260 8.668190 -6.825345 -1.360259 0.698277 33.023521 40.054893 -4.142289 0.493846 0.315457 22.243264 -2.758343 -10.210626 -1.969967 4.858044 0.106391 -11.204349 7.489511 5.191642 -4.354402 -0.145767 0.751894 -21.027951 0.242048 2.300861 -2.518844 -4.160025 -0.527190 7.843146 -2.847396 8.505399 -0.535982 0.829748 -0.039662
23.142861 46.839725 93.384899 0.030493 13.148472 -0.013963 -6.021165 1.283620 -0.896601 5.075732 -9.705602 3.942587 1.912778 -8.555317 -0.270536 5.629173 0.855777 0.809928 -3.552951 14.943400 -0.090125 -18.555202 -0.175080 1.467184 -4.375865 5.049143 3.606896 -12.300565 -1.472241 -46.377962 -5.256810 -2.020092 -3.704801 -6.064740 -33.877993 -17.875924 3.698388 -19.792807 3.444440 8.699897 -16.802300 48.302644 8.260245 -7.326985 -1.502451 0.068341 32.919069 40.192098 -3.990079 0.951004 0.162930 23.831133 -2.944990 -9.867589 -2.691471 4.540190 0.223507 -11.341076 7.512839 4.656094 -4.849818 -0.130471 0.906256 -20.528344 0.003971 3.323521 -3.279069 -3.667311 -0.690378 8.646007 -2.573051 6.884043 -0.206061 0.755059 -0.378724
